<svg xmlns="http://www.w3.org/2000/svg" width="1200" height="630" viewBox="0 0 1200 630" role="img" aria-label="Fohryu Works">
  <rect width="1200" height="630" fill="#090706"/>
  <g opacity=".18" stroke="#f6efea">
    <path d="M0 110h1200M0 220h1200M0 330h1200M0 440h1200M0 550h1200"/>
    <path d="M140 0v630M280 0v630M420 0v630M560 0v630M700 0v630M840 0v630M980 0v630M1120 0v630"/>
  </g>
  <path d="M120 470C240 310 375 278 526 374s292 93 420-32" fill="none" stroke="#ff5a67" stroke-width="10" stroke-linecap="round"/>
  <path d="M132 220c132-54 250-32 354 66s221 122 351 72" fill="none" stroke="#ffb36a" stroke-width="6" stroke-linecap="round" opacity=".85"/>
  <rect x="88" y="78" width="150" height="150" rx="22" fill="#ff5a67"/>
  <text x="121" y="169" fill="#090706" font-family="Inter, ui-sans-serif, system-ui, sans-serif" font-size="58" font-weight="800">FW</text>
  <text x="88" y="310" fill="#ffb36a" font-family="Inter, ui-sans-serif, system-ui, sans-serif" font-size="30" font-weight="760" letter-spacing="4">FOHRYU WORKS</text>
  <text x="88" y="397" fill="#f6efea" font-family="Inter, ui-sans-serif, system-ui, sans-serif" font-size="76" font-weight="780">Construire.</text>
  <text x="88" y="478" fill="#f6efea" font-family="Inter, ui-sans-serif, system-ui, sans-serif" font-size="76" font-weight="780">Expérimenter.</text>
  <text x="88" y="554" fill="#b9aaa3" font-family="Inter, ui-sans-serif, system-ui, sans-serif" font-size="34">Logiciel, IA, création, documentation.</text>
</svg>
